<svg xmlns="http://www.w3.org/2000/svg" width="480" height="480" viewBox="0 0 480 480" role="img">
<defs>
<linearGradient id="a1bg" x1="0" y1="0" x2="1" y2="1" gradientTransform="rotate(5.5 0.5 0.5)"><stop offset="0" stop-color="#362c22"/><stop offset="1" stop-color="#3a2e24"/></linearGradient>
<radialGradient id="a1glow" cx="0.5" cy="0.5" r="0.5"><stop offset="0" stop-color="#907667" stop-opacity="0.45"/><stop offset="0.6" stop-color="#907667" stop-opacity="0.16"/><stop offset="1" stop-color="#907667" stop-opacity="0"/></radialGradient>
<radialGradient id="a1shadow" cx="0.5" cy="0.5" r="0.5"><stop offset="0" stop-color="#000000" stop-opacity="0.42"/><stop offset="0.55" stop-color="#000000" stop-opacity="0.16"/><stop offset="1" stop-color="#000000" stop-opacity="0"/></radialGradient>
<linearGradient id="a1nut" x1="0" y1="0" x2="1" y2="1"><stop offset="0" stop-color="#8a7058"/><stop offset="1" stop-color="#4f4032"/></linearGradient>
<linearGradient id="a1bevel" x1="0" y1="0" x2="0.7" y2="1"><stop offset="0" stop-color="#ffffff" stop-opacity="0.28"/><stop offset="0.5" stop-color="#ffffff" stop-opacity="0.04"/><stop offset="1" stop-color="#000000" stop-opacity="0.16"/></linearGradient>
<radialGradient id="a1vig" cx="0.5" cy="0.47" r="0.8"><stop offset="0.6" stop-color="#3a2e24" stop-opacity="0"/><stop offset="1" stop-color="#2d241c" stop-opacity="0.55"/></radialGradient>
<filter id="a1grain" x="0" y="0" width="100%" height="100%"><feTurbulence type="fractalNoise" baseFrequency="0.9" numOctaves="2" seed="886" stitchTiles="stitch"/><feColorMatrix type="matrix" values="0 0 0 0 0.87 0 0 0 0 0.85 0 0 0 0 0.8 0.28 0.28 0.28 0 0"/></filter>
</defs>
<rect width="480" height="480" fill="url(#a1bg)"/><circle cx="240" cy="164.0" r="260" fill="url(#a1glow)"/>
<circle cx="240" cy="234" r="224" fill="none" stroke="#b09c6d" stroke-width="1.5" stroke-dasharray="1 7" opacity="0.5"/><circle cx="240" cy="234" r="196" fill="none" stroke="#8a7058" stroke-width="1.5" opacity="0.55"/><circle cx="240" cy="234" r="168" fill="none" stroke="#5c4a3a" stroke-width="1" stroke-dasharray="11.6 10" opacity="0.6"/>
<ellipse cx="240" cy="246.0" rx="152" ry="146" fill="url(#a1shadow)" opacity="0.55"/><g transform="rotate(37.3 240 234)"><polygon points="240.00,116.00 342.19,175.00 342.19,293.00 240.00,352.00 137.81,293.00 137.81,175.00" fill="url(#a1nut)" stroke="#3a2e24" stroke-width="2.5"/><polygon points="240.00,116.00 342.19,175.00 342.19,293.00 240.00,352.00 137.81,293.00 137.81,175.00" fill="url(#a1bevel)"/><polygon points="240.00,122.00 336.99,178.00 336.99,290.00 240.00,346.00 143.01,290.00 143.01,178.00" fill="none" stroke="#f2ece4" stroke-width="1" opacity="0.22"/><polygon points="240.00,130.00 330.07,182.00 330.07,286.00 240.00,338.00 149.93,286.00 149.93,182.00" fill="none" stroke="#271f18" stroke-width="1.5" opacity="0.6"/></g><circle cx="240" cy="234" r="58" fill="#3a2e24"/><circle cx="240" cy="234" r="58" fill="none" stroke="#8a7058" stroke-width="3" opacity="0.8"/><circle cx="240" cy="234" r="52" fill="none" stroke="#f2ece4" stroke-width="1" opacity="0.2"/>
<text x="240" y="254.0" text-anchor="middle" font-family="Inter, 'Helvetica Neue', Arial, sans-serif" font-size="58" font-weight="600" letter-spacing="3" fill="#f2ece4" opacity="0.94">A</text>
<rect width="480" height="480" filter="url(#a1grain)" opacity="0.6"/><rect width="480" height="480" fill="url(#a1vig)"/>
<rect x="16" y="16" width="448" height="448" fill="none" stroke="#8a7058" stroke-opacity="0.35" stroke-width="1.5"/><path d="M16 38 V16 H38 M442 16 H464 V38 M464 442 V464 H442 M38 464 H16 V442" fill="none" stroke="#b09c6d" stroke-width="2" opacity="0.7"/>
</svg>
