<svg xmlns="http://www.w3.org/2000/svg" width="640" height="640" viewBox="0 0 640 640" data-family="orbits" role="img">
<defs>
<linearGradient id="c12bg" x1="0" y1="0" x2="1" y2="1" gradientTransform="rotate(21.2 0.5 0.5)"><stop offset="0" stop-color="#172c36"/><stop offset="1" stop-color="#132a33"/></linearGradient>
<radialGradient id="c12b1" cx="0.5" cy="0.5" r="0.5"><stop offset="0" stop-color="#212b46" stop-opacity="0.62"/><stop offset="0.6" stop-color="#212b46" stop-opacity="0.28"/><stop offset="1" stop-color="#212b46" stop-opacity="0"/></radialGradient>
<radialGradient id="c12b2" cx="0.5" cy="0.5" r="0.5"><stop offset="0" stop-color="#5f8696" stop-opacity="0.56"/><stop offset="0.55" stop-color="#5f8696" stop-opacity="0.22"/><stop offset="1" stop-color="#5f8696" stop-opacity="0"/></radialGradient>
<radialGradient id="c12b3" cx="0.5" cy="0.5" r="0.5"><stop offset="0" stop-color="#3d6767" stop-opacity="0.66"/><stop offset="0.6" stop-color="#3d6767" stop-opacity="0.3"/><stop offset="1" stop-color="#3d6767" stop-opacity="0"/></radialGradient>
<linearGradient id="c12sheen" x1="0" y1="0" x2="1" y2="1"><stop offset="0" stop-color="#ffffff" stop-opacity="0.13"/><stop offset="0.4" stop-color="#ffffff" stop-opacity="0"/><stop offset="1" stop-color="#000000" stop-opacity="0.14"/></linearGradient>
<radialGradient id="c12vig" cx="0.5" cy="0.46" r="0.75"><stop offset="0.55" stop-color="#16303a" stop-opacity="0"/><stop offset="1" stop-color="#10242b" stop-opacity="0.66"/></radialGradient>
<radialGradient id="c12core" cx="0.5" cy="0.5" r="0.5"><stop offset="0" stop-color="#5f8696" stop-opacity="0.9"/><stop offset="0.45" stop-color="#5f8696" stop-opacity="0.32"/><stop offset="1" stop-color="#5f8696" stop-opacity="0"/></radialGradient>
<filter id="c12mottle" x="0" y="0" width="100%" height="100%"><feTurbulence type="fractalNoise" baseFrequency="0.011" numOctaves="3" seed="828" stitchTiles="stitch"/><feColorMatrix type="matrix" values="0 0 0 0 1 0 0 0 0 1 0 0 0 0 1 0.5 0.5 0.5 0 -0.32"/></filter>
<filter id="c12grain" x="0" y="0" width="100%" height="100%"><feTurbulence type="fractalNoise" baseFrequency="0.793" numOctaves="2" seed="76" stitchTiles="stitch"/><feColorMatrix type="matrix" values="0 0 0 0 0.87 0 0 0 0 0.85 0 0 0 0 0.8 0.28 0.28 0.28 0 0"/></filter>
</defs>
<rect width="640" height="640" fill="url(#c12bg)"/><circle cx="211.2" cy="105.9" r="338.2" fill="url(#c12b1)" style="mix-blend-mode:soft-light"/><circle cx="383.8" cy="441.2" r="374.2" fill="url(#c12b2)" style="mix-blend-mode:screen" opacity="0.55"/><circle cx="352.9" cy="78.2" r="395.7" fill="url(#c12b3)" style="mix-blend-mode:multiply" opacity="0.5"/>
<g><circle cx="333.4" cy="294.4" r="100.7" fill="url(#c12core)"/><circle cx="333.4" cy="294.4" r="42.0" fill="none" stroke="#4f7d92" stroke-width="2.5" opacity="0.85"/><circle cx="333.4" cy="294.4" r="4.5" fill="#5f8696"/><ellipse cx="333.4" cy="294.4" rx="138.0" ry="68.3" fill="none" stroke="#4f7d92" stroke-width="2.4" opacity="0.85" transform="rotate(26.6 333.4 294.4)"/><circle cx="208.9" cy="235.2" r="9.2" fill="#5f8696"/><circle cx="208.9" cy="235.2" r="15.2" fill="none" stroke="#5f8696" stroke-width="1.4" opacity="0.5"/><circle cx="206.7" cy="243.2" r="8.9" fill="#5f8696"/><circle cx="206.7" cy="243.2" r="14.9" fill="none" stroke="#5f8696" stroke-width="1.4" opacity="0.5"/><ellipse cx="333.4" cy="294.4" rx="203.6" ry="112.5" fill="none" stroke="#26495a" stroke-width="1.6" opacity="0.78" transform="rotate(120.5 333.4 294.4)"/><circle cx="410.7" cy="110.5" r="9.8" fill="#5f8696"/><circle cx="410.7" cy="110.5" r="15.8" fill="none" stroke="#5f8696" stroke-width="1.4" opacity="0.5"/><ellipse cx="333.4" cy="294.4" rx="252.4" ry="132.8" fill="none" stroke="#4f7d92" stroke-width="1.6" opacity="0.71" transform="rotate(89.0 333.4 294.4)"/><circle cx="444.0" cy="439.1" r="7.6" fill="#5f8696"/><circle cx="444.0" cy="439.1" r="13.6" fill="none" stroke="#5f8696" stroke-width="1.4" opacity="0.5"/><ellipse cx="333.4" cy="294.4" rx="312.3" ry="130.0" fill="none" stroke="#26495a" stroke-width="2.4" opacity="0.64" stroke-dasharray="19.4 12.8" transform="rotate(97.3 333.4 294.4)"/><circle cx="212.8" cy="226.8" r="7.0" fill="#5f8696"/><circle cx="212.8" cy="226.8" r="13.0" fill="none" stroke="#5f8696" stroke-width="1.4" opacity="0.5"/><circle cx="233.4" cy="552.2" r="9.7" fill="#5f8696"/><circle cx="233.4" cy="552.2" r="15.7" fill="none" stroke="#5f8696" stroke-width="1.4" opacity="0.5"/><circle cx="333.4" cy="294.4" r="316.0" fill="none" stroke="#b0946d" stroke-width="1.5" stroke-dasharray="1 8" opacity="0.55"/></g>
<rect width="640" height="640" fill="url(#c12sheen)" style="mix-blend-mode:soft-light" opacity="0.7"/><rect width="640" height="640" filter="url(#c12mottle)" style="mix-blend-mode:soft-light" opacity="0.42"/><rect width="640" height="640" filter="url(#c12grain)" opacity="0.56"/><rect width="640" height="640" fill="url(#c12vig)"/>
<rect x="24" y="24" width="592" height="592" fill="none" stroke="#4f7d92" stroke-opacity="0.4" stroke-width="1.5"/><path d="M24 48 V24 H48 M592 24 H616 V48 M616 592 V616 H592 M48 616 H24 V592" fill="none" stroke="#b0946d" stroke-width="2.5" opacity="0.75"/><rect x="146.0" y="614.5" width="34" height="3" fill="#b0946d" opacity="0.8"/>
</svg>
