<svg xmlns="http://www.w3.org/2000/svg" width="640" height="640" viewBox="0 0 640 640">
  <defs>
    <linearGradient id="g" x1="0" y1="0" x2="1" y2="1">
      <stop offset="0" stop-color="#3a5a6e"/>
      <stop offset="0.55" stop-color="#243844"/>
      <stop offset="1" stop-color="#243844"/>
    </linearGradient>
  </defs>
  <rect width="640" height="640" fill="url(#g)"/>
  <g transform="rotate(0 320 320)"><circle cx="380.0" cy="320.0" r="150" fill="none" stroke="#6a92a8" stroke-width="14" opacity="0.9"/><circle cx="370.5" cy="384.6" r="124" fill="none" stroke="#3a5a6e" stroke-width="12" opacity="0.76"/><circle cx="294.8" cy="420.9" r="98" fill="none" stroke="#6a92a8" stroke-width="10" opacity="0.62"/><circle cx="204.9" cy="371.2" r="72" fill="none" stroke="#3a5a6e" stroke-width="8" opacity="0.48"/><circle cx="189.3" cy="250.5" r="46" fill="none" stroke="#6a92a8" stroke-width="6" opacity="0.33999999999999997"/></g>
  <rect x="60" y="580" width="30" height="60" fill="#3a5a6e" opacity="0.35"/><rect x="126" y="580" width="30" height="60" fill="#6a92a8" opacity="0.53"/><rect x="192" y="580" width="30" height="60" fill="#3a5a6e" opacity="0.71"/><rect x="258" y="580" width="30" height="60" fill="#6a92a8" opacity="0.35"/><rect x="324" y="580" width="30" height="60" fill="#3a5a6e" opacity="0.53"/><rect x="390" y="580" width="30" height="60" fill="#6a92a8" opacity="0.71"/><rect x="456" y="580" width="30" height="60" fill="#3a5a6e" opacity="0.35"/><rect x="522" y="580" width="30" height="60" fill="#6a92a8" opacity="0.53"/>
  <rect x="24" y="24" width="592" height="592" fill="none" stroke="#6a92a8" stroke-opacity="0.35" stroke-width="2"/>
</svg>
