<svg xmlns="http://www.w3.org/2000/svg" width="640" height="640" viewBox="0 0 640 640" data-family="dots" role="img">
<defs>
<linearGradient id="c07bg" x1="0" y1="0" x2="1" y2="1" gradientTransform="rotate(-8.8 0.5 0.5)"><stop offset="0" stop-color="#182129"/><stop offset="1" stop-color="#17212d"/></linearGradient>
<radialGradient id="c07b1" cx="0.5" cy="0.5" r="0.5"><stop offset="0" stop-color="#222438" stop-opacity="0.62"/><stop offset="0.6" stop-color="#222438" stop-opacity="0.28"/><stop offset="1" stop-color="#222438" stop-opacity="0"/></radialGradient>
<radialGradient id="c07b2" cx="0.5" cy="0.5" r="0.5"><stop offset="0" stop-color="#596c85" stop-opacity="0.56"/><stop offset="0.55" stop-color="#596c85" stop-opacity="0.22"/><stop offset="1" stop-color="#596c85" stop-opacity="0"/></radialGradient>
<radialGradient id="c07b3" cx="0.5" cy="0.5" r="0.5"><stop offset="0" stop-color="#365456" stop-opacity="0.66"/><stop offset="0.6" stop-color="#365456" stop-opacity="0.3"/><stop offset="1" stop-color="#365456" stop-opacity="0"/></radialGradient>
<linearGradient id="c07sheen" x1="0" y1="0" x2="1" y2="1"><stop offset="0" stop-color="#ffffff" stop-opacity="0.13"/><stop offset="0.4" stop-color="#ffffff" stop-opacity="0"/><stop offset="1" stop-color="#000000" stop-opacity="0.14"/></linearGradient>
<radialGradient id="c07vig" cx="0.5" cy="0.46" r="0.75"><stop offset="0.55" stop-color="#1a2634" stop-opacity="0"/><stop offset="1" stop-color="#131c26" stop-opacity="0.66"/></radialGradient>
<radialGradient id="c07core" cx="0.5" cy="0.5" r="0.5"><stop offset="0" stop-color="#596c85" stop-opacity="0.9"/><stop offset="0.45" stop-color="#596c85" stop-opacity="0.32"/><stop offset="1" stop-color="#596c85" stop-opacity="0"/></radialGradient>
<filter id="c07mottle" x="0" y="0" width="100%" height="100%"><feTurbulence type="fractalNoise" baseFrequency="0.011" numOctaves="3" seed="690" stitchTiles="stitch"/><feColorMatrix type="matrix" values="0 0 0 0 1 0 0 0 0 1 0 0 0 0 1 0.5 0.5 0.5 0 -0.32"/></filter>
<filter id="c07grain" x="0" y="0" width="100%" height="100%"><feTurbulence type="fractalNoise" baseFrequency="0.867" numOctaves="2" seed="543" stitchTiles="stitch"/><feColorMatrix type="matrix" values="0 0 0 0 0.87 0 0 0 0 0.85 0 0 0 0 0.8 0.28 0.28 0.28 0 0"/></filter>
</defs>
<rect width="640" height="640" fill="url(#c07bg)"/><circle cx="447.7" cy="249.9" r="419.4" fill="url(#c07b1)" style="mix-blend-mode:soft-light"/><circle cx="300.9" cy="464.9" r="314.3" fill="url(#c07b2)" style="mix-blend-mode:screen" opacity="0.55"/><circle cx="559.1" cy="423.5" r="389.4" fill="url(#c07b3)" style="mix-blend-mode:multiply" opacity="0.5"/>
<g><g><circle cx="234.4" cy="91.6" r="2.0" fill="#4a6680" opacity="0.52"/><circle cx="262.9" cy="91.6" r="2.5" fill="#4a6680" opacity="0.54"/><circle cx="291.5" cy="91.6" r="2.1" fill="#4a6680" opacity="0.52"/><circle cx="434.2" cy="91.6" r="1.6" fill="#4a6680" opacity="0.50"/><circle cx="462.7" cy="91.6" r="2.5" fill="#4a6680" opacity="0.54"/><circle cx="491.3" cy="91.6" r="2.7" fill="#4a6680" opacity="0.55"/><circle cx="519.8" cy="91.6" r="1.9" fill="#4a6680" opacity="0.51"/><circle cx="63.1" cy="120.2" r="1.8" fill="#4a6680" opacity="0.51"/><circle cx="234.4" cy="120.2" r="3.1" fill="#4a6680" opacity="0.57"/><circle cx="262.9" cy="120.2" r="4.1" fill="#4a6680" opacity="0.60"/><circle cx="291.5" cy="120.2" r="3.1" fill="#4a6680" opacity="0.57"/><circle cx="320.0" cy="120.2" r="1.4" fill="#4a6680" opacity="0.49"/><circle cx="434.2" cy="120.2" r="2.1" fill="#4a6680" opacity="0.52"/><circle cx="462.7" cy="120.2" r="3.9" fill="#4a6680" opacity="0.60"/><circle cx="491.3" cy="120.2" r="4.3" fill="#4a6680" opacity="0.61"/><circle cx="519.8" cy="120.2" r="2.8" fill="#4a6680" opacity="0.55"/><circle cx="63.1" cy="148.7" r="2.0" fill="#4a6680" opacity="0.52"/><circle cx="205.8" cy="148.7" r="1.5" fill="#4a6680" opacity="0.49"/><circle cx="234.4" cy="148.7" r="3.7" fill="#4a6680" opacity="0.59"/><circle cx="262.9" cy="148.7" r="4.9" fill="#4a6680" opacity="0.62"/><circle cx="291.5" cy="148.7" r="3.7" fill="#4a6680" opacity="0.59"/><circle cx="320.0" cy="148.7" r="1.7" fill="#4a6680" opacity="0.50"/><circle cx="434.2" cy="148.7" r="2.5" fill="#4a6680" opacity="0.54"/><circle cx="462.7" cy="148.7" r="4.6" fill="#4a6680" opacity="0.62"/><circle cx="491.3" cy="148.7" r="5.1" fill="#4a6680" opacity="0.63"/><circle cx="519.8" cy="148.7" r="3.3" fill="#4a6680" opacity="0.57"/><circle cx="63.1" cy="177.3" r="1.7" fill="#4a6680" opacity="0.50"/><circle cx="205.8" cy="177.3" r="1.7" fill="#4a6680" opacity="0.50"/><circle cx="234.4" cy="177.3" r="3.4" fill="#4a6680" opacity="0.58"/><circle cx="262.9" cy="177.3" r="4.3" fill="#4a6680" opacity="0.61"/><circle cx="291.5" cy="177.3" r="3.5" fill="#4a6680" opacity="0.58"/><circle cx="320.0" cy="177.3" r="2.1" fill="#4a6680" opacity="0.52"/><circle cx="405.6" cy="177.3" r="1.4" fill="#4a6680" opacity="0.48"/><circle cx="434.2" cy="177.3" r="2.8" fill="#4a6680" opacity="0.55"/><circle cx="462.7" cy="177.3" r="4.3" fill="#4a6680" opacity="0.61"/><circle cx="491.3" cy="177.3" r="4.5" fill="#4a6680" opacity="0.61"/><circle cx="519.8" cy="177.3" r="3.2" fill="#4a6680" opacity="0.57"/><circle cx="548.4" cy="177.3" r="1.5" fill="#4a6680" opacity="0.49"/><circle cx="205.8" cy="205.8" r="1.9" fill="#4a6680" opacity="0.51"/><circle cx="234.4" cy="205.8" r="2.5" fill="#4a6680" opacity="0.54"/><circle cx="262.9" cy="205.8" r="2.9" fill="#4a6680" opacity="0.56"/><circle cx="291.5" cy="205.8" r="2.9" fill="#4a6680" opacity="0.56"/><circle cx="320.0" cy="205.8" r="2.6" fill="#4a6680" opacity="0.54"/><circle cx="348.5" cy="205.8" r="2.3" fill="#4a6680" opacity="0.53"/><circle cx="377.1" cy="205.8" r="2.2" fill="#4a6680" opacity="0.53"/><circle cx="405.6" cy="205.8" r="2.5" fill="#4a6680" opacity="0.54"/><circle cx="434.2" cy="205.8" r="2.9" fill="#4a6680" opacity="0.56"/><circle cx="462.7" cy="205.8" r="3.2" fill="#4a6680" opacity="0.57"/><circle cx="491.3" cy="205.8" r="3.2" fill="#4a6680" opacity="0.57"/><circle cx="519.8" cy="205.8" r="2.7" fill="#4a6680" opacity="0.55"/><circle cx="548.4" cy="205.8" r="2.0" fill="#4a6680" opacity="0.52"/><circle cx="576.9" cy="205.8" r="1.5" fill="#4a6680" opacity="0.49"/><circle cx="120.2" cy="234.4" r="2.0" fill="#4a6680" opacity="0.52"/><circle cx="148.7" cy="234.4" r="2.5" fill="#4a6680" opacity="0.54"/><circle cx="177.3" cy="234.4" r="2.5" fill="#4a6680" opacity="0.54"/><circle cx="205.8" cy="234.4" r="2.1" fill="#4a6680" opacity="0.52"/><circle cx="234.4" cy="234.4" r="1.7" fill="#4a6680" opacity="0.50"/><circle cx="262.9" cy="234.4" r="1.7" fill="#4a6680" opacity="0.50"/><circle cx="291.5" cy="234.4" r="2.2" fill="#4a6680" opacity="0.52"/><circle cx="320.0" cy="234.4" r="3.1" fill="#4a6680" opacity="0.57"/><circle cx="348.5" cy="234.4" r="4.2" fill="#4a6680" opacity="0.60"/><circle cx="377.1" cy="234.4" r="4.5" fill="#4a6680" opacity="0.61"/><circle cx="405.6" cy="234.4" r="4.0" fill="#4a6680" opacity="0.60"/><circle cx="434.2" cy="234.4" r="3.0" fill="#4a6680" opacity="0.56"/><circle cx="462.7" cy="234.4" r="2.2" fill="#4a6680" opacity="0.53"/><circle cx="491.3" cy="234.4" r="1.9" fill="#4a6680" opacity="0.51"/><circle cx="519.8" cy="234.4" r="2.1" fill="#4a6680" opacity="0.52"/><circle cx="548.4" cy="234.4" r="2.7" fill="#4a6680" opacity="0.55"/><circle cx="576.9" cy="234.4" r="3.1" fill="#4a6680" opacity="0.57"/><circle cx="120.2" cy="262.9" r="3.1" fill="#4a6680" opacity="0.56"/><circle cx="148.7" cy="262.9" r="4.3" fill="#4a6680" opacity="0.61"/><circle cx="177.3" cy="262.9" r="3.8" fill="#4a6680" opacity="0.59"/><circle cx="205.8" cy="262.9" r="2.2" fill="#4a6680" opacity="0.53"/><circle cx="291.5" cy="262.9" r="1.7" fill="#4a6680" opacity="0.50"/><circle cx="320.0" cy="262.9" r="3.7" fill="#4a6680" opacity="0.59"/><circle cx="348.5" cy="262.9" r="6.2" fill="#4a6680" opacity="0.66"/><circle cx="377.1" cy="262.9" r="7.2" fill="#4a6680" opacity="0.69"/><circle cx="405.6" cy="262.9" r="5.6" fill="#4a6680" opacity="0.65"/><circle cx="434.2" cy="262.9" r="3.1" fill="#4a6680" opacity="0.57"/><circle cx="462.7" cy="262.9" r="1.6" fill="#4a6680" opacity="0.49"/><circle cx="519.8" cy="262.9" r="1.8" fill="#4a6680" opacity="0.51"/><circle cx="548.4" cy="262.9" r="3.4" fill="#4a6680" opacity="0.57"/><circle cx="576.9" cy="262.9" r="4.9" fill="#4a6680" opacity="0.63"/><circle cx="120.2" cy="291.5" r="3.7" fill="#4a6680" opacity="0.59"/><circle cx="148.7" cy="291.5" r="5.3" fill="#4a6680" opacity="0.64"/><circle cx="177.3" cy="291.5" r="4.5" fill="#4a6680" opacity="0.61"/><circle cx="205.8" cy="291.5" r="2.4" fill="#4a6680" opacity="0.54"/><circle cx="291.5" cy="291.5" r="1.7" fill="#4a6680" opacity="0.50"/><circle cx="320.0" cy="291.5" r="4.2" fill="#4a6680" opacity="0.60"/><circle cx="348.5" cy="291.5" r="7.6" fill="#4a6680" opacity="0.70"/><circle cx="377.1" cy="291.5" r="8.8" fill="#596c85" opacity="0.73"/><circle cx="405.6" cy="291.5" r="6.7" fill="#4a6680" opacity="0.68"/><circle cx="434.2" cy="291.5" r="3.5" fill="#4a6680" opacity="0.58"/><circle cx="462.7" cy="291.5" r="1.5" fill="#4a6680" opacity="0.49"/><circle cx="519.8" cy="291.5" r="1.8" fill="#4a6680" opacity="0.51"/><circle cx="548.4" cy="291.5" r="3.8" fill="#4a6680" opacity="0.59"/><circle cx="576.9" cy="291.5" r="5.9" fill="#4a6680" opacity="0.66"/><circle cx="91.6" cy="320.0" r="1.5" fill="#4a6680" opacity="0.49"/><circle cx="120.2" cy="320.0" r="3.5" fill="#4a6680" opacity="0.58"/><circle cx="148.7" cy="320.0" r="4.9" fill="#4a6680" opacity="0.63"/><circle cx="177.3" cy="320.0" r="4.3" fill="#4a6680" opacity="0.61"/><circle cx="205.8" cy="320.0" r="2.6" fill="#4a6680" opacity="0.55"/><circle cx="234.4" cy="320.0" r="1.4" fill="#4a6680" opacity="0.49"/><circle cx="291.5" cy="320.0" r="2.2" fill="#4a6680" opacity="0.53"/><circle cx="320.0" cy="320.0" r="4.6" fill="#4a6680" opacity="0.62"/><circle cx="348.5" cy="320.0" r="7.6" fill="#4a6680" opacity="0.70"/><circle cx="377.1" cy="320.0" r="8.7" fill="#4a6680" opacity="0.72"/><circle cx="405.6" cy="320.0" r="6.9" fill="#4a6680" opacity="0.68"/><circle cx="434.2" cy="320.0" r="4.0" fill="#4a6680" opacity="0.60"/><circle cx="462.7" cy="320.0" r="2.1" fill="#4a6680" opacity="0.52"/><circle cx="491.3" cy="320.0" r="1.6" fill="#4a6680" opacity="0.49"/><circle cx="519.8" cy="320.0" r="2.2" fill="#4a6680" opacity="0.53"/><circle cx="548.4" cy="320.0" r="4.0" fill="#4a6680" opacity="0.60"/><circle cx="576.9" cy="320.0" r="5.7" fill="#4a6680" opacity="0.65"/><circle cx="91.6" cy="348.5" r="1.5" fill="#4a6680" opacity="0.49"/><circle cx="120.2" cy="348.5" r="2.6" fill="#4a6680" opacity="0.55"/><circle cx="148.7" cy="348.5" r="3.4" fill="#4a6680" opacity="0.58"/><circle cx="177.3" cy="348.5" r="3.4" fill="#4a6680" opacity="0.58"/><circle cx="205.8" cy="348.5" r="2.8" fill="#4a6680" opacity="0.55"/><circle cx="234.4" cy="348.5" r="2.4" fill="#4a6680" opacity="0.53"/><circle cx="262.9" cy="348.5" r="2.4" fill="#4a6680" opacity="0.54"/><circle cx="291.5" cy="348.5" r="3.2" fill="#4a6680" opacity="0.57"/><circle cx="320.0" cy="348.5" r="4.8" fill="#4a6680" opacity="0.62"/><circle cx="348.5" cy="348.5" r="6.4" fill="#4a6680" opacity="0.67"/><circle cx="377.1" cy="348.5" r="7.1" fill="#4a6680" opacity="0.69"/><circle cx="405.6" cy="348.5" r="6.3" fill="#4a6680" opacity="0.67"/><circle cx="434.2" cy="348.5" r="4.8" fill="#4a6680" opacity="0.62"/><circle cx="462.7" cy="348.5" r="3.5" fill="#4a6680" opacity="0.58"/><circle cx="491.3" cy="348.5" r="2.9" fill="#4a6680" opacity="0.56"/><circle cx="519.8" cy="348.5" r="3.2" fill="#4a6680" opacity="0.57"/><circle cx="548.4" cy="348.5" r="3.8" fill="#4a6680" opacity="0.59"/><circle cx="576.9" cy="348.5" r="4.3" fill="#4a6680" opacity="0.61"/><circle cx="63.1" cy="377.1" r="1.6" fill="#4a6680" opacity="0.49"/><circle cx="91.6" cy="377.1" r="1.6" fill="#4a6680" opacity="0.50"/><circle cx="120.2" cy="377.1" r="1.6" fill="#4a6680" opacity="0.50"/><circle cx="148.7" cy="377.1" r="1.8" fill="#4a6680" opacity="0.51"/><circle cx="177.3" cy="377.1" r="2.3" fill="#4a6680" opacity="0.53"/><circle cx="205.8" cy="377.1" r="3.0" fill="#4a6680" opacity="0.56"/><circle cx="234.4" cy="377.1" r="3.9" fill="#4a6680" opacity="0.59"/><circle cx="262.9" cy="377.1" r="4.5" fill="#4a6680" opacity="0.61"/><circle cx="291.5" cy="377.1" r="4.8" fill="#4a6680" opacity="0.62"/><circle cx="320.0" cy="377.1" r="4.8" fill="#4a6680" opacity="0.62"/><circle cx="348.5" cy="377.1" r="4.8" fill="#4a6680" opacity="0.62"/><circle cx="377.1" cy="377.1" r="5.0" fill="#4a6680" opacity="0.63"/><circle cx="405.6" cy="377.1" r="5.4" fill="#4a6680" opacity="0.64"/><circle cx="434.2" cy="377.1" r="5.7" fill="#4a6680" opacity="0.65"/><circle cx="462.7" cy="377.1" r="5.7" fill="#4a6680" opacity="0.65"/><circle cx="491.3" cy="377.1" r="5.2" fill="#4a6680" opacity="0.64"/><circle cx="519.8" cy="377.1" r="4.4" fill="#4a6680" opacity="0.61"/><circle cx="548.4" cy="377.1" r="3.5" fill="#4a6680" opacity="0.58"/><circle cx="576.9" cy="377.1" r="2.8" fill="#4a6680" opacity="0.55"/><circle cx="63.1" cy="405.6" r="2.6" fill="#4a6680" opacity="0.54"/><circle cx="91.6" cy="405.6" r="1.6" fill="#4a6680" opacity="0.50"/><circle cx="177.3" cy="405.6" r="1.5" fill="#4a6680" opacity="0.49"/><circle cx="205.8" cy="405.6" r="3.2" fill="#4a6680" opacity="0.57"/><circle cx="234.4" cy="405.6" r="5.5" fill="#4a6680" opacity="0.64"/><circle cx="262.9" cy="405.6" r="6.9" fill="#4a6680" opacity="0.68"/><circle cx="291.5" cy="405.6" r="6.4" fill="#4a6680" opacity="0.67"/><circle cx="320.0" cy="405.6" r="4.7" fill="#4a6680" opacity="0.62"/><circle cx="348.5" cy="405.6" r="3.5" fill="#4a6680" opacity="0.58"/><circle cx="377.1" cy="405.6" r="3.5" fill="#4a6680" opacity="0.58"/><circle cx="405.6" cy="405.6" r="4.6" fill="#4a6680" opacity="0.62"/><circle cx="434.2" cy="405.6" r="6.4" fill="#4a6680" opacity="0.67"/><circle cx="462.7" cy="405.6" r="8.0" fill="#4a6680" opacity="0.71"/><circle cx="491.3" cy="405.6" r="7.8" fill="#4a6680" opacity="0.70"/><circle cx="519.8" cy="405.6" r="5.7" fill="#4a6680" opacity="0.65"/><circle cx="548.4" cy="405.6" r="3.2" fill="#4a6680" opacity="0.57"/><circle cx="576.9" cy="405.6" r="1.6" fill="#4a6680" opacity="0.50"/><circle cx="63.1" cy="434.2" r="3.2" fill="#4a6680" opacity="0.57"/><circle cx="91.6" cy="434.2" r="1.6" fill="#4a6680" opacity="0.50"/><circle cx="205.8" cy="434.2" r="3.2" fill="#4a6680" opacity="0.57"/><circle cx="234.4" cy="434.2" r="6.5" fill="#4a6680" opacity="0.67"/><circle cx="262.9" cy="434.2" r="8.4" fill="#4a6680" opacity="0.72"/><circle cx="291.5" cy="434.2" r="7.3" fill="#4a6680" opacity="0.69"/><circle cx="320.0" cy="434.2" r="4.5" fill="#4a6680" opacity="0.61"/><circle cx="348.5" cy="434.2" r="2.7" fill="#4a6680" opacity="0.55"/><circle cx="377.1" cy="434.2" r="2.5" fill="#4a6680" opacity="0.54"/><circle cx="405.6" cy="434.2" r="3.8" fill="#4a6680" opacity="0.59"/><circle cx="434.2" cy="434.2" r="6.5" fill="#4a6680" opacity="0.67"/><circle cx="462.7" cy="434.2" r="9.3" fill="#596c85" opacity="0.74"/><circle cx="491.3" cy="434.2" r="9.4" fill="#596c85" opacity="0.74"/><circle cx="519.8" cy="434.2" r="6.4" fill="#4a6680" opacity="0.67"/><circle cx="548.4" cy="434.2" r="2.9" fill="#4a6680" opacity="0.56"/><circle cx="63.1" cy="462.7" r="3.1" fill="#4a6680" opacity="0.56"/><circle cx="91.6" cy="462.7" r="1.6" fill="#4a6680" opacity="0.50"/><circle cx="205.8" cy="462.7" r="3.1" fill="#4a6680" opacity="0.57"/><circle cx="234.4" cy="462.7" r="6.3" fill="#4a6680" opacity="0.66"/><circle cx="262.9" cy="462.7" r="8.1" fill="#4a6680" opacity="0.71"/><circle cx="291.5" cy="462.7" r="6.9" fill="#4a6680" opacity="0.68"/><circle cx="320.0" cy="462.7" r="4.3" fill="#4a6680" opacity="0.61"/><circle cx="348.5" cy="462.7" r="2.5" fill="#4a6680" opacity="0.54"/><circle cx="377.1" cy="462.7" r="2.2" fill="#4a6680" opacity="0.53"/><circle cx="405.6" cy="462.7" r="3.4" fill="#4a6680" opacity="0.58"/><circle cx="434.2" cy="462.7" r="6.1" fill="#4a6680" opacity="0.66"/><circle cx="462.7" cy="462.7" r="8.8" fill="#4a6680" opacity="0.72"/><circle cx="491.3" cy="462.7" r="8.9" fill="#596c85" opacity="0.73"/><circle cx="519.8" cy="462.7" r="6.1" fill="#4a6680" opacity="0.66"/><circle cx="548.4" cy="462.7" r="2.9" fill="#4a6680" opacity="0.56"/><circle cx="63.1" cy="491.3" r="2.3" fill="#4a6680" opacity="0.53"/><circle cx="91.6" cy="491.3" r="1.5" fill="#4a6680" opacity="0.49"/><circle cx="177.3" cy="491.3" r="1.5" fill="#4a6680" opacity="0.49"/><circle cx="205.8" cy="491.3" r="3.0" fill="#4a6680" opacity="0.56"/><circle cx="234.4" cy="491.3" r="4.9" fill="#4a6680" opacity="0.63"/><circle cx="262.9" cy="491.3" r="6.0" fill="#4a6680" opacity="0.66"/><circle cx="291.5" cy="491.3" r="5.6" fill="#4a6680" opacity="0.65"/><circle cx="320.0" cy="491.3" r="4.2" fill="#4a6680" opacity="0.60"/><circle cx="348.5" cy="491.3" r="3.1" fill="#4a6680" opacity="0.56"/><circle cx="377.1" cy="491.3" r="2.9" fill="#4a6680" opacity="0.56"/><circle cx="405.6" cy="491.3" r="3.7" fill="#4a6680" opacity="0.59"/><circle cx="434.2" cy="491.3" r="5.3" fill="#4a6680" opacity="0.64"/><circle cx="462.7" cy="491.3" r="6.8" fill="#4a6680" opacity="0.68"/><circle cx="491.3" cy="491.3" r="6.7" fill="#4a6680" opacity="0.68"/><circle cx="519.8" cy="491.3" r="5.0" fill="#4a6680" opacity="0.63"/><circle cx="548.4" cy="491.3" r="3.0" fill="#4a6680" opacity="0.56"/><circle cx="576.9" cy="491.3" r="1.6" fill="#4a6680" opacity="0.50"/><circle cx="91.6" cy="519.8" r="1.4" fill="#4a6680" opacity="0.49"/><circle cx="120.2" cy="519.8" r="1.6" fill="#4a6680" opacity="0.50"/><circle cx="148.7" cy="519.8" r="1.9" fill="#4a6680" opacity="0.51"/><circle cx="177.3" cy="519.8" r="2.3" fill="#4a6680" opacity="0.53"/><circle cx="205.8" cy="519.8" r="2.7" fill="#4a6680" opacity="0.55"/><circle cx="234.4" cy="519.8" r="3.1" fill="#4a6680" opacity="0.57"/><circle cx="262.9" cy="519.8" r="3.5" fill="#4a6680" opacity="0.58"/><circle cx="291.5" cy="519.8" r="3.8" fill="#4a6680" opacity="0.59"/><circle cx="320.0" cy="519.8" r="4.0" fill="#4a6680" opacity="0.60"/><circle cx="348.5" cy="519.8" r="4.2" fill="#4a6680" opacity="0.60"/><circle cx="377.1" cy="519.8" r="4.3" fill="#4a6680" opacity="0.61"/><circle cx="405.6" cy="519.8" r="4.4" fill="#4a6680" opacity="0.61"/><circle cx="434.2" cy="519.8" r="4.4" fill="#4a6680" opacity="0.61"/><circle cx="462.7" cy="519.8" r="4.3" fill="#4a6680" opacity="0.61"/><circle cx="491.3" cy="519.8" r="4.0" fill="#4a6680" opacity="0.60"/><circle cx="519.8" cy="519.8" r="3.6" fill="#4a6680" opacity="0.58"/><circle cx="548.4" cy="519.8" r="3.1" fill="#4a6680" opacity="0.57"/><circle cx="576.9" cy="519.8" r="2.7" fill="#4a6680" opacity="0.55"/><circle cx="120.2" cy="548.4" r="2.5" fill="#4a6680" opacity="0.54"/><circle cx="148.7" cy="548.4" r="3.4" fill="#4a6680" opacity="0.58"/><circle cx="177.3" cy="548.4" r="3.2" fill="#4a6680" opacity="0.57"/><circle cx="205.8" cy="548.4" r="2.4" fill="#4a6680" opacity="0.54"/><circle cx="234.4" cy="548.4" r="1.7" fill="#4a6680" opacity="0.50"/><circle cx="262.9" cy="548.4" r="1.7" fill="#4a6680" opacity="0.50"/><circle cx="291.5" cy="548.4" r="2.4" fill="#4a6680" opacity="0.53"/><circle cx="320.0" cy="548.4" r="3.9" fill="#4a6680" opacity="0.59"/><circle cx="348.5" cy="548.4" r="5.5" fill="#4a6680" opacity="0.64"/><circle cx="377.1" cy="548.4" r="6.1" fill="#4a6680" opacity="0.66"/><circle cx="405.6" cy="548.4" r="5.2" fill="#4a6680" opacity="0.63"/><circle cx="434.2" cy="548.4" r="3.6" fill="#4a6680" opacity="0.58"/><circle cx="462.7" cy="548.4" r="2.4" fill="#4a6680" opacity="0.53"/><circle cx="491.3" cy="548.4" r="2.0" fill="#4a6680" opacity="0.52"/><circle cx="519.8" cy="548.4" r="2.4" fill="#4a6680" opacity="0.53"/><circle cx="548.4" cy="548.4" r="3.3" fill="#4a6680" opacity="0.57"/><circle cx="576.9" cy="548.4" r="4.1" fill="#4a6680" opacity="0.60"/><circle cx="120.2" cy="576.9" r="3.2" fill="#4a6680" opacity="0.57"/><circle cx="148.7" cy="576.9" r="4.6" fill="#4a6680" opacity="0.62"/><circle cx="177.3" cy="576.9" r="3.9" fill="#4a6680" opacity="0.59"/><circle cx="205.8" cy="576.9" r="2.1" fill="#4a6680" opacity="0.52"/><circle cx="291.5" cy="576.9" r="1.5" fill="#4a6680" opacity="0.49"/><circle cx="320.0" cy="576.9" r="3.6" fill="#4a6680" opacity="0.58"/><circle cx="348.5" cy="576.9" r="6.3" fill="#4a6680" opacity="0.67"/><circle cx="377.1" cy="576.9" r="7.3" fill="#4a6680" opacity="0.69"/><circle cx="405.6" cy="576.9" r="5.6" fill="#4a6680" opacity="0.65"/><circle cx="434.2" cy="576.9" r="2.9" fill="#4a6680" opacity="0.56"/><circle cx="519.8" cy="576.9" r="1.6" fill="#4a6680" opacity="0.50"/><circle cx="548.4" cy="576.9" r="3.3" fill="#4a6680" opacity="0.57"/><circle cx="576.9" cy="576.9" r="5.1" fill="#4a6680" opacity="0.63"/></g></g>
<rect width="640" height="640" fill="url(#c07sheen)" style="mix-blend-mode:soft-light" opacity="0.7"/><rect width="640" height="640" filter="url(#c07mottle)" style="mix-blend-mode:soft-light" opacity="0.42"/><rect width="640" height="640" filter="url(#c07grain)" opacity="0.58"/><rect width="640" height="640" fill="url(#c07vig)"/>
<rect x="24" y="24" width="592" height="592" fill="none" stroke="#4a6680" stroke-opacity="0.4" stroke-width="1.5"/><path d="M24 48 V24 H48 M592 24 H616 V48 M616 592 V616 H592 M48 616 H24 V592" fill="none" stroke="#b09c6d" stroke-width="2.5" opacity="0.75"/><rect x="190.3" y="614.5" width="34" height="3" fill="#b09c6d" opacity="0.8"/>
</svg>
